<mxfile modified="2022-06-30T06:30:14.088Z" host="app.diagrams.net" agent="5.0 (Windows NT 10.0; Win64; x64) AppleWebKit/537.36 (KHTML, like Gecko) Chrome/91.0.4472.124 Safari/537.36" etag="zRenH-d9OOJwGHsDCqP4" version="15.5.9" type="github">
  <diagram id="l8hXMBHkgcEJcSW0mbfh" name="Page-1">
    <mxGraphModel dx="1422" dy="762" grid="1" gridSize="10" guides="1" tooltips="1" connect="1" arrows="1" fold="1" page="1" pageScale="1" pageWidth="980" pageHeight="690" math="0" shadow="0">
      <root>
        <mxCell id="0" />
        <mxCell id="1" parent="0" />
        <mxCell id="hSqU_bDdvJ7CT25A89Mv-16" value="" style="edgeStyle=orthogonalEdgeStyle;rounded=0;orthogonalLoop=1;jettySize=auto;html=1;" edge="1" parent="1" source="v3Fr1BDXMQPu-uxNORBo-6" target="hSqU_bDdvJ7CT25A89Mv-15">
          <mxGeometry relative="1" as="geometry" />
        </mxCell>
        <mxCell id="v3Fr1BDXMQPu-uxNORBo-6" value="入库" style="whiteSpace=wrap;html=1;rounded=1;arcSize=50;align=center;verticalAlign=middle;strokeWidth=1;autosize=1;spacing=4;treeFolding=1;treeMoving=1;newEdgeStyle={&quot;edgeStyle&quot;:&quot;entityRelationEdgeStyle&quot;,&quot;startArrow&quot;:&quot;none&quot;,&quot;endArrow&quot;:&quot;none&quot;,&quot;segment&quot;:10,&quot;curved&quot;:1};direction=west;" parent="1" vertex="1">
          <mxGeometry x="210" y="150" width="60" height="30" as="geometry" />
        </mxCell>
        <mxCell id="hSqU_bDdvJ7CT25A89Mv-5" value="" style="edgeStyle=orthogonalEdgeStyle;rounded=0;orthogonalLoop=1;jettySize=auto;html=1;" edge="1" parent="1" target="hSqU_bDdvJ7CT25A89Mv-4">
          <mxGeometry relative="1" as="geometry">
            <mxPoint x="605" y="200" as="sourcePoint" />
          </mxGeometry>
        </mxCell>
        <mxCell id="v3Fr1BDXMQPu-uxNORBo-18" value="" style="edgeStyle=entityRelationEdgeStyle;startArrow=none;endArrow=none;segment=10;curved=1;" parent="1" target="v3Fr1BDXMQPu-uxNORBo-17" edge="1">
          <mxGeometry relative="1" as="geometry">
            <mxPoint x="460" y="115" as="sourcePoint" />
          </mxGeometry>
        </mxCell>
        <mxCell id="v3Fr1BDXMQPu-uxNORBo-21" value="Sub Topic" style="whiteSpace=wrap;html=1;rounded=1;arcSize=50;align=center;verticalAlign=middle;strokeWidth=1;autosize=1;spacing=4;treeFolding=1;treeMoving=1;newEdgeStyle={&quot;edgeStyle&quot;:&quot;entityRelationEdgeStyle&quot;,&quot;startArrow&quot;:&quot;none&quot;,&quot;endArrow&quot;:&quot;none&quot;,&quot;segment&quot;:10,&quot;curved&quot;:1};" parent="1" vertex="1" visible="0">
          <mxGeometry x="889" y="610" width="72" height="26" as="geometry" />
        </mxCell>
        <mxCell id="v3Fr1BDXMQPu-uxNORBo-23" value="Sub Topic" style="whiteSpace=wrap;html=1;rounded=1;arcSize=50;align=center;verticalAlign=middle;strokeWidth=1;autosize=1;spacing=4;treeFolding=1;treeMoving=1;newEdgeStyle={&quot;edgeStyle&quot;:&quot;entityRelationEdgeStyle&quot;,&quot;startArrow&quot;:&quot;none&quot;,&quot;endArrow&quot;:&quot;none&quot;,&quot;segment&quot;:10,&quot;curved&quot;:1};" parent="1" vertex="1" visible="0">
          <mxGeometry x="1041" y="610" width="72" height="26" as="geometry" />
        </mxCell>
        <mxCell id="v3Fr1BDXMQPu-uxNORBo-24" value="" style="edgeStyle=entityRelationEdgeStyle;startArrow=none;endArrow=none;segment=10;curved=1;" parent="1" source="v3Fr1BDXMQPu-uxNORBo-21" target="v3Fr1BDXMQPu-uxNORBo-23" edge="1" visible="0">
          <mxGeometry relative="1" as="geometry">
            <mxPoint x="1001" y="650" as="sourcePoint" />
          </mxGeometry>
        </mxCell>
        <mxCell id="hSqU_bDdvJ7CT25A89Mv-7" value="" style="edgeStyle=orthogonalEdgeStyle;rounded=0;orthogonalLoop=1;jettySize=auto;html=1;" edge="1" parent="1" target="hSqU_bDdvJ7CT25A89Mv-6">
          <mxGeometry relative="1" as="geometry">
            <mxPoint x="625" y="330" as="sourcePoint" />
          </mxGeometry>
        </mxCell>
        <mxCell id="hSqU_bDdvJ7CT25A89Mv-10" value="" style="edgeStyle=orthogonalEdgeStyle;rounded=0;orthogonalLoop=1;jettySize=auto;html=1;" edge="1" parent="1" target="hSqU_bDdvJ7CT25A89Mv-9">
          <mxGeometry relative="1" as="geometry">
            <mxPoint x="635" y="450" as="sourcePoint" />
          </mxGeometry>
        </mxCell>
        <mxCell id="hSqU_bDdvJ7CT25A89Mv-12" value="" style="edgeStyle=orthogonalEdgeStyle;rounded=0;orthogonalLoop=1;jettySize=auto;html=1;" edge="1" parent="1" target="hSqU_bDdvJ7CT25A89Mv-11">
          <mxGeometry relative="1" as="geometry">
            <mxPoint x="625" y="540" as="sourcePoint" />
          </mxGeometry>
        </mxCell>
        <mxCell id="hSqU_bDdvJ7CT25A89Mv-18" value="" style="edgeStyle=orthogonalEdgeStyle;rounded=0;orthogonalLoop=1;jettySize=auto;html=1;" edge="1" parent="1" source="hSqU_bDdvJ7CT25A89Mv-15" target="hSqU_bDdvJ7CT25A89Mv-17">
          <mxGeometry relative="1" as="geometry" />
        </mxCell>
        <mxCell id="hSqU_bDdvJ7CT25A89Mv-15" value="PurchaseOrderApprovalProcessor" style="whiteSpace=wrap;html=1;rounded=1;arcSize=50;align=center;verticalAlign=middle;strokeWidth=1;autosize=1;spacing=4;treeFolding=1;treeMoving=1;newEdgeStyle={&quot;edgeStyle&quot;:&quot;entityRelationEdgeStyle&quot;,&quot;startArrow&quot;:&quot;none&quot;,&quot;endArrow&quot;:&quot;none&quot;,&quot;segment&quot;:10,&quot;curved&quot;:1};direction=west;" vertex="1" parent="1">
          <mxGeometry x="160" y="330" width="220" height="30" as="geometry" />
        </mxCell>
        <mxCell id="hSqU_bDdvJ7CT25A89Mv-20" value="" style="edgeStyle=orthogonalEdgeStyle;rounded=0;orthogonalLoop=1;jettySize=auto;html=1;" edge="1" parent="1" source="hSqU_bDdvJ7CT25A89Mv-17" target="hSqU_bDdvJ7CT25A89Mv-19">
          <mxGeometry relative="1" as="geometry" />
        </mxCell>
        <mxCell id="hSqU_bDdvJ7CT25A89Mv-17" value="updateApprovalChangeStatusOfBizPo" style="whiteSpace=wrap;html=1;rounded=1;arcSize=50;align=center;verticalAlign=middle;strokeWidth=1;autosize=1;spacing=4;treeFolding=1;treeMoving=1;newEdgeStyle={&quot;edgeStyle&quot;:&quot;entityRelationEdgeStyle&quot;,&quot;startArrow&quot;:&quot;none&quot;,&quot;endArrow&quot;:&quot;none&quot;,&quot;segment&quot;:10,&quot;curved&quot;:1};direction=west;" vertex="1" parent="1">
          <mxGeometry x="150" y="430" width="240" height="30" as="geometry" />
        </mxCell>
        <mxCell id="hSqU_bDdvJ7CT25A89Mv-22" value="" style="edgeStyle=orthogonalEdgeStyle;rounded=0;orthogonalLoop=1;jettySize=auto;html=1;" edge="1" parent="1" source="hSqU_bDdvJ7CT25A89Mv-19" target="hSqU_bDdvJ7CT25A89Mv-21">
          <mxGeometry relative="1" as="geometry" />
        </mxCell>
        <mxCell id="hSqU_bDdvJ7CT25A89Mv-19" value="toCreateInStorageBillReq" style="whiteSpace=wrap;html=1;rounded=1;arcSize=50;align=center;verticalAlign=middle;strokeWidth=1;autosize=1;spacing=4;treeFolding=1;treeMoving=1;newEdgeStyle={&quot;edgeStyle&quot;:&quot;entityRelationEdgeStyle&quot;,&quot;startArrow&quot;:&quot;none&quot;,&quot;endArrow&quot;:&quot;none&quot;,&quot;segment&quot;:10,&quot;curved&quot;:1};direction=west;" vertex="1" parent="1">
          <mxGeometry x="180" y="540" width="180" height="30" as="geometry" />
        </mxCell>
        <mxCell id="hSqU_bDdvJ7CT25A89Mv-24" value="" style="edgeStyle=orthogonalEdgeStyle;rounded=0;orthogonalLoop=1;jettySize=auto;html=1;" edge="1" parent="1" source="hSqU_bDdvJ7CT25A89Mv-21" target="hSqU_bDdvJ7CT25A89Mv-23">
          <mxGeometry relative="1" as="geometry" />
        </mxCell>
        <mxCell id="hSqU_bDdvJ7CT25A89Mv-21" value="CreateInStorageBillReq" style="whiteSpace=wrap;html=1;rounded=1;arcSize=50;align=center;verticalAlign=middle;strokeWidth=1;autosize=1;spacing=4;treeFolding=1;treeMoving=1;newEdgeStyle={&quot;edgeStyle&quot;:&quot;entityRelationEdgeStyle&quot;,&quot;startArrow&quot;:&quot;none&quot;,&quot;endArrow&quot;:&quot;none&quot;,&quot;segment&quot;:10,&quot;curved&quot;:1};direction=west;" vertex="1" parent="1">
          <mxGeometry x="185" y="605" width="170" height="30" as="geometry" />
        </mxCell>
        <mxCell id="hSqU_bDdvJ7CT25A89Mv-27" value="" style="edgeStyle=orthogonalEdgeStyle;rounded=0;orthogonalLoop=1;jettySize=auto;html=1;" edge="1" parent="1" source="hSqU_bDdvJ7CT25A89Mv-23" target="hSqU_bDdvJ7CT25A89Mv-26">
          <mxGeometry relative="1" as="geometry" />
        </mxCell>
        <mxCell id="hSqU_bDdvJ7CT25A89Mv-23" value="storageBillService.createInStorageBill" style="whiteSpace=wrap;html=1;rounded=1;arcSize=50;align=center;verticalAlign=middle;strokeWidth=1;autosize=1;spacing=4;treeFolding=1;treeMoving=1;newEdgeStyle={&quot;edgeStyle&quot;:&quot;entityRelationEdgeStyle&quot;,&quot;startArrow&quot;:&quot;none&quot;,&quot;endArrow&quot;:&quot;none&quot;,&quot;segment&quot;:10,&quot;curved&quot;:1};direction=west;" vertex="1" parent="1">
          <mxGeometry x="150" y="715" width="240" height="30" as="geometry" />
        </mxCell>
        <mxCell id="hSqU_bDdvJ7CT25A89Mv-26" value="end&lt;br&gt;" style="rhombus;whiteSpace=wrap;html=1;rounded=1;strokeWidth=1;spacing=4;arcSize=50;" vertex="1" parent="1">
          <mxGeometry x="230" y="800" width="80" height="80" as="geometry" />
        </mxCell>
      </root>
    </mxGraphModel>
  </diagram>
</mxfile>
